PathFileType	4	(X/Y/Z)	8_coords_data.trc
DataRate	CameraRate	NumFrames	NumMarkers	Units	OrigDataRate	OrigDataStartFrame	OrigNumFrames
30.0	30.0	7	21	m	30.0	1	62
Frame#	Time	THUMB_TIP	THUMB_IP	THUMB_MCP	THUMB_CMC	INDEX_TIP	INDEX_DIP	INDEX_PIP	INDEX_MCP	MIDDLE_TIP	MIDDLE_DIP	MIDDLE_PIP	MIDDLE_MCP	RING_TIP	RING_DIP	RING_PIP	RING_MCP	PINKY_TIP	PINKY_DIP	PINKY_PIP	PINKY_MCP	WRIST
X1	Y1	Z1	X2	Y2	Z2	X3	Y3	Z3	X4	Y4	Z4	X5	Y5	Z5	X6	Y6	Z6	X7	Y7	Z7	X8	Y8	Z8	X9	Y9	Z9	X10	Y10	Z10	X11	Y11	Z11	X12	Y12	Z12	X13	Y13	Z13	X14	Y14	Z14	X15	Y15	Z15	X16	Y16	Z16	X17	Y17	Z17	X18	Y18	Z18	X19	Y19	Z19	X20	Y20	Z20	X21	Y21	Z21
0	0.0	-0.037755699157714845	-0.11228800201416016	1.00427001953125	-0.03298809814453125	-0.08655960083007813	0.9997769775390625	-0.03632880020141602	-0.059479598999023435	1.0016400146484374	-0.040329700469970704	-0.027397600173950196	1.005	-0.03995220184326172	-0.0387140007019043	0.979322021484375	-0.02608489990234375	-0.037272201538085935	0.9706060180664062	-0.01947450065612793	-0.04279750061035156	0.9511710205078125	-0.05799160003662109	-0.048474201202392576	0.9538350219726562	-0.03171129989624023	-0.02842690086364746	0.9840900268554688	-0.024833700180053712	-0.021748600006103517	0.9698660278320312	-0.019019699096679686	-0.0243523006439209	0.9467429809570312	-0.06030979919433594	-0.028117399215698242	0.9474600219726562	-0.03962310028076172	-0.010380299568176269	0.981655029296875	-0.025644399642944335	-0.005347330093383789	0.9666300048828125	-0.01998780059814453	-0.004366330146789551	0.9456649780273437	-0.05848860168457031	-0.009064149856567384	0.9488660278320312	-0.04151679992675781	0.0046654300689697266	0.9815549926757813	-0.02640679931640625	0.006540800094604492	0.9714539794921875	-0.02627680015563965	0.009971960067749024	0.9558779907226562	-0.0534567985534668	0.010196900367736817	0.9506829833984375	-0.06113320159912109	0.00354013991355896	1.0200900268554687
1	0.03333333333333333	-0.037991199493408206	-0.11242900085449219	1.004260009765625	-0.03416579818725586	-0.08668789672851562	0.9979879760742187	-0.037172698974609376	-0.058478401184082034	0.9994099731445313	-0.04041239929199219	-0.024792499542236328	1.003719970703125	-0.041111801147460936	-0.03945510101318359	0.9783930053710937	-0.02548430061340332	-0.03833349990844727	0.97068701171875	-0.020371000289916993	-0.04371849822998047	0.9508460083007813	-0.05769889831542969	-0.048585399627685544	0.954093994140625	-0.032814300537109375	-0.024166000366210937	0.979072998046875	-0.023915000915527344	-0.021936800003051756	0.9699349975585938	-0.019657400131225584	-0.024643199920654297	0.945073974609375	-0.06005530166625977	-0.028339399337768554	0.9470560302734375	-0.03872010040283203	-0.009208900451660156	0.98064697265625	-0.02493600082397461	-0.005783689975738525	0.9685609741210938	-0.020630199432373045	-0.005294990062713623	0.945176025390625	-0.05766910171508789	-0.008398570060729981	0.947280029296875	-0.040939701080322265	0.004181829929351807	0.9810089721679688	-0.027350900650024414	0.007276659965515137	0.9716489868164062	-0.026569599151611327	0.009515299797058105	0.9551160278320312	-0.05501290130615234	0.010281100273132324	0.9513690185546875	-0.06238650131225586	0.0017259199619293212	1.018510009765625
2	0.06666666666666667	-0.03855419921875	-0.11256800079345704	1.003760009765625	-0.034641899108886716	-0.086881103515625	0.99735302734375	-0.037539600372314456	-0.058578601837158205	0.99889501953125	-0.04070169830322266	-0.024897899627685547	1.003219970703125	-0.04146379852294922	-0.039567501068115234	0.9778499755859374	-0.025696500778198243	-0.03840769958496094	0.9700640258789063	-0.02066819953918457	-0.043724899291992185	0.9503980102539062	-0.058172100067138674	-0.04858319854736328	0.9536259765625	-0.033197200775146485	-0.024205799102783202	0.97860302734375	-0.024107400894165038	-0.021979299545288086	0.9692559814453126	-0.01994700050354004	-0.024701900482177734	0.9446500244140625	-0.06042110061645508	-0.028319999694824217	0.9466320190429688	-0.03890010070800781	-0.009342289924621583	0.9801820068359375	-0.025207199096679688	-0.005871540069580078	0.9679639892578125	-0.020901599884033204	-0.0053288497924804685	0.9446599731445312	-0.057899200439453125	-0.008361820220947266	0.9468250122070313	-0.041107498168945315	0.004009039878845215	0.980219970703125	-0.027645500183105468	0.007187119960784912	0.9712730102539062	-0.02686520004272461	0.009481659889221191	0.954760009765625	-0.055305801391601565	0.010283300399780274	0.9510079956054688	-0.06266709899902344	0.001634140014648437	1.017969970703125
3	0.1	-0.03888719940185547	-0.11259400177001953	1.003280029296875	-0.03499670028686523	-0.08690959930419923	0.9969099731445312	-0.03795119857788086	-0.058552501678466796	0.9984749755859375	-0.04123690032958984	-0.02488949966430664	1.0026300048828125	-0.04204270172119141	-0.03954869842529297	0.9772570190429688	-0.026106399536132814	-0.03833219909667969	0.9695139770507812	-0.021152700424194336	-0.04377170181274414	0.94960400390625	-0.05847629928588867	-0.04856760025024414	0.9529349975585938	-0.03359049987792969	-0.02417919921875	0.977906982421875	-0.024636899948120117	-0.021942699432373047	0.9686329956054688	-0.020394399642944337	-0.024612400054931642	0.943947998046875	-0.06077239990234375	-0.02828969955444336	0.945947998046875	-0.03934239959716797	-0.009345230102539062	0.9794349975585938	-0.025667299270629884	-0.005838630199432373	0.9674299926757812	-0.02135530090332031	-0.005276299953460693	0.9441710205078125	-0.058406299591064456	-0.008355310440063476	0.9463679809570312	-0.04159930038452148	0.00409915018081665	0.9800020141601562	-0.02814809989929199	0.0072268500328063956	0.9704730224609375	-0.027320699691772463	0.009527199745178223	0.9542329711914063	-0.05580519866943359	0.010294699668884277	0.9504429931640626	-0.06297510147094726	0.001613199949264526	1.0174400024414063
4	0.13333333333333333	-0.0391974983215332	-0.11261900329589844	1.0027999877929688	-0.035348499298095706	-0.08693489837646484	0.996385986328125	-0.038233501434326175	-0.058661598205566406	0.9978820190429688	-0.04148160171508789	-0.024957799911499025	1.0020900268554687	-0.041961898803710936	-0.039448699951171874	0.9767899780273438	-0.026431299209594725	-0.0382760009765625	0.9689619750976562	-0.02143600082397461	-0.04357939910888672	0.9492160034179687	-0.058607898712158206	-0.048609798431396484	0.9524140014648438	-0.03402799987792969	-0.024127500534057617	0.978385009765625	-0.025002500534057618	-0.02188629913330078	0.9679760131835937	-0.0207593994140625	-0.02452050018310547	0.9434390258789063	-0.06117699813842774	-0.0282185001373291	0.9455460205078124	-0.03966949844360351	-0.009341320037841798	0.9785789794921875	-0.026006399154663087	-0.005778510093688965	0.9668729858398437	-0.021754899978637696	-0.005218170166015625	0.943666015625	-0.05876979827880859	-0.008267359733581543	0.9459229736328125	-0.04199449920654297	0.004111050128936767	0.9793729858398438	-0.028388799667358397	0.007288509845733642	0.970208984375	-0.027682300567626952	0.009604769706726074	0.9537219848632813	-0.056194000244140625	0.010352399826049805	0.9500230102539062	-0.06315560150146485	0.001568879961967468	1.0169299926757813
5	0.16666666666666666	-0.039233200073242186	-0.11261100006103515	1.0024299926757811	-0.03537469863891601	-0.0869738998413086	0.9959650268554687	-0.038301300048828125	-0.05868740081787109	0.9973980102539063	-0.041604301452636716	-0.024944900512695312	1.0016699829101563	-0.042268901824951174	-0.03944469833374024	0.9760880126953125	-0.026420600891113283	-0.038127300262451175	0.9686079711914063	-0.021322900772094727	-0.043469001770019534	0.948781005859375	-0.05852750015258789	-0.048477401733398436	0.9519180297851563	-0.03381449890136719	-0.02402400016784668	0.976947021484375	-0.02502000045776367	-0.021730199813842773	0.9676409912109375	-0.02072209930419922	-0.02434239959716797	0.9431950073242188	-0.06114189910888672	-0.02808139991760254	0.945114990234375	-0.039782901763916016	-0.00919435977935791	0.9787570190429687	-0.026135799407958984	-0.005638539791107178	0.9665709838867188	-0.021819900512695313	-0.0050120801925659176	0.9433510131835937	-0.05883509826660156	-0.008134759902954102	0.945489013671875	-0.042109600067138674	0.004177470207214356	0.9790919799804687	-0.02859499931335449	0.007420269966125488	0.9698939819335938	-0.027872900009155273	0.009762060165405274	0.9534509887695313	-0.05622529983520508	0.010446000099182128	0.9496489868164063	-0.06350479888916015	0.0015386600494384762	1.0165900268554688
6	0.2	-0.03923749923706055	-0.11261799621582032	1.0021400146484376	-0.035351699829101565	-0.08693109893798828	0.99577099609375	-0.03826219940185547	-0.05862120056152344	0.9971909790039063	-0.041638698577880856	-0.02498979949951172	1.0015399780273437	-0.04211940002441406	-0.039450599670410154	0.975947021484375	-0.026425100326538085	-0.038121700286865234	0.9682689819335938	-0.021196100234985353	-0.04333229827880859	0.9484920043945313	-0.058575298309326174	-0.048399398803710934	0.9516090087890625	-0.03384809875488281	-0.023994899749755858	0.9771160278320312	-0.024953800201416014	-0.021669500350952147	0.9674500122070312	-0.020625	-0.02425029945373535	0.9428510131835938	-0.061013599395751954	-0.028066299438476563	0.9447529907226563	-0.03983580017089844	-0.00919530963897705	0.978343017578125	-0.02612540054321289	-0.005574590206146241	0.9662490234375	-0.021766300201416015	-0.00489670991897583	0.9430130004882813	-0.0588036003112793	-0.008086649894714356	0.9452080078125	-0.04220800018310547	0.004197020053863526	0.9789609985351563	-0.028769899368286132	0.007498050212860107	0.9696619873046874	-0.027910999298095703	0.009887720108032226	0.9531749877929687	-0.056334598541259766	0.010518500328063965	0.9493619995117187	-0.06349190139770508	0.0014068100452423091	1.01627001953125
